/* XPM */
static char *result[] = {
/* columns rows colors chars-per-pixel */
"32 32 136 2 ",
"   c #150F24",
".  c #161124",
"X  c #181324",
"o  c #201C26",
"O  c #1C212E",
"+  c #24232B",
"@  c #292429",
"#  c #232A2A",
"$  c #2F2B2B",
"%  c #312E2B",
"&  c #2C342E",
"*  c #36342D",
"=  c #242930",
"-  c #292F32",
";  c #2A3533",
":  c #2D3D3B",
">  c #303634",
",  c #323A33",
"<  c #2E463F",
"1  c #3E4739",
"2  c #3C4C3E",
"3  c #2E513E",
"4  c #375934",
"5  c #3B5E32",
"6  c #32513C",
"7  c #395939",
"8  c #3E6031",
"9  c #464532",
"0  c #484734",
"q  c #494933",
"w  c #404739",
"e  c #444E3A",
"r  c #4A533D",
"t  c #535336",
"y  c #535D3F",
"u  c #5B633F",
"i  c #497F3C",
"p  c #66683C",
"a  c #696E3F",
"s  c #273F43",
"d  c #2B4344",
"f  c #2E4D45",
"g  c #314741",
"h  c #324C44",
"j  c #3C4D40",
"k  c #2E5447",
"l  c #2E554D",
"z  c #2F584C",
"x  c #335346",
"c  c #395747",
"v  c #315B44",
"b  c #3B5B44",
"n  c #335549",
"m  c #3A5449",
"M  c #335A4C",
"N  c #385C4F",
"B  c #325E51",
"V  c #385A50",
"C  c #346546",
"Z  c #33644C",
"A  c #3A654C",
"S  c #356B4E",
"D  c #3A6C4B",
"F  c #37724F",
"G  c #39764F",
"H  c #3A7B4F",
"J  c #336451",
"K  c #396353",
"L  c #356B50",
"P  c #386E51",
"I  c #377150",
"U  c #387550",
"Y  c #435E4C",
"T  c #426141",
"R  c #4F6648",
"E  c #436D4B",
"W  c #4A6B4C",
"Q  c #596340",
"!  c #5A6845",
"~  c #506548",
"^  c #536E48",
"/  c #437347",
"(  c #467940",
")  c #40754A",
"_  c #417E4A",
"`  c #5E764F",
"'  c #516E51",
"]  c #597652",
"[  c #646D43",
"{  c #6B7443",
"}  c #757A43",
"|  c #787B43",
" . c #4D843B",
".. c #528938",
"X. c #5C9F3E",
"o. c #5EA13D",
"O. c #63AB3F",
"+. c #3E814D",
"@. c #488448",
"#. c #45894B",
"$. c #4D8F48",
"%. c #508F43",
"&. c #4E9347",
"*. c #4D9148",
"=. c #509345",
"-. c #569B44",
";. c #589D42",
":. c #6C824F",
">. c #7A8146",
",. c #7E8648",
"<. c #7B8A4E",
"1. c #5DA441",
"2. c #61A940",
"3. c #828847",
"4. c #818949",
"5. c #8E964B",
"6. c #949A4C",
"7. c #8F9F52",
"8. c #9FA74F",
"9. c #92A153",
"0. c #9AA753",
"q. c #9EAA53",
"w. c #A2AB51",
"e. c #A5B154",
"r. c #AAB454",
"t. c #AFB854",
"y. c #A9B959",
"u. c #B2BC56",
"i. c #B2BF59",
"p. c #B7C257",
"a. c #BAC458",
"s. c #BEC859",
"d. c #C2CE5B",
"f. c #C6D25C",
"g. c #C9D55D",
"h. c #CDD95E",
/* pixels */
"g.g.f.g.g.g.g.h.h.t.} q + . . . . . . + 0 | u.h.h.g.g.g.g.g.f.g.",
"g.f.g.g.g.d.a.i.p.0.{ e & # # # # # O & r { 0.i.i.a.d.g.g.g.g.g.",
"g.g.g.g.h.a.6.4.<.:.^ r 7 4 5 8 8 5 5 4 T ^ :.<.3.6.a.h.g.g.f.g.",
"f.g.g.f.s.w.} Q R W ) / (  . ..... .i i / E W ~ Q } w.s.f.g.f.g.",
"g.g.g.s.w.,.y e c A ) @.=.1.o.O.o.X.-.%.@.G A c j Q 3.w.s.g.g.g.",
"g.g.d.r.3.Q m f M C _ $.;.1.2.2.O.1.1.;.$._ C v f e u 3.r.d.f.g.",
"g.d.u.5.Q 1 6 n Z H #.&.1.1.2.2.O.O.1.-.=.#.F Z k h 2 u 5.u.d.g.",
"h.i.5.{ e < k Z S H #.*.-.1.2.1.O.O.1.;.&.#.H D Z k d e [ 6.a.g.",
"h.r.{ w d k Z F H H +.#.&.1.1.1.1.1.-.&.+.+.H G F Z k f 1 a e.h.",
"h.w.Q : f Z I G H H H +.#.&.-.-.-.-.&.#.+.I U U G F B f : Q e.h.",
"h.y.` m Z P G H H H H +.+.+.#.+.#.#.+.+.G I L L U G S Z c ` y.h.",
"r.7.] K I G H H +.H H G H H +.+.+.H +.G I L J L H H G I K ] 9.u.",
"p Q Y B P U H H H H I I U U H H H H H G I L J J G H G L Z Y [ { ",
"* , h B L U H H +.G L L L U H H H +.+.H U P J L U U U L B h w 9 ",
"o = d l J L U H H G I J L I H H H H H H G U L L L L J B l g > % ",
"X O s l B J P U G U L L L U G +.H +.H H G U P P J J J B l d - @ ",
"  O s l J J L I I L L L I U H H +.H H +.+.H U I L J J z l s ; = ",
"  O s l J J L J L L L I I U H H H H H H U +.U U L L L J l s ; O ",
"  O s z J I L J B J L I H H H H H H H H H U U U U H I L M d ; + ",
". O s z I I I L J L I U H H U I I U H H H U I I +.U H L l d - + ",
"O O d z L U U I U I H H +.U I L L I H H U I J I G H U S z d ; % ",
"6 1 n B L +.+.+.+.+.H +.+.U L J J I U H I J J L G G H P B m r t ",
"6.<.W K I U +.+.U +.H H H U L J L I U H I L J J G H G U K ' <.6.",
"s.q.` N J I U U +.+.U +.+.G F S J I U U I L J L G H U C N ] w.d.",
"g.e.! < M Z G H H H +.H H H G F L L L J L L S F G U Z z < ! e.g.",
"h.r.[ 2 h z C G G H H +.H H G G P L J J J P G G I S z f 2 [ r.h.",
"h.t.4.u 2 f z S G H H +.+.+.H H I L L L P I G F S z f 2 u 3.u.h.",
"g.a.8.>.y 2 c Z D G G G G G H G U I S S S F F D A c 2 y | 8.s.g.",
"g.f.s.q.{ y R W E D C C D F I U U P S C C C D E W R y { q.s.f.g.",
"g.g.g.p.6.>.<.:.^ Y 6 3 v Z L P P L Z v 3 6 b ^ :.<.,.6.p.g.g.g.",
"g.g.g.f.a.y.p.0.{ e , ; < n K K K N x < ; , e { 0.p.u.p.f.g.g.g.",
"g.f.g.g.h.h.h.t.} 0 % # : h V V K N g : # $ q } t.h.h.g.g.f.g.g."
};
