/* XPM */
static char *result[] = {
/* columns rows colors chars-per-pixel */
"32 32 189 2 ",
"   c #1E132C",
".  c #230F2C",
"X  c #27152C",
"o  c #3A142E",
"O  c #3D1531",
"+  c #1D202F",
"@  c #2A272D",
"#  c #292532",
"$  c #2A2C33",
"%  c #352434",
"&  c #3C2935",
"*  c #2E3030",
"=  c #373435",
"-  c #3D393A",
";  c #48192D",
":  c #481632",
">  c #4C1A32",
",  c #531B34",
"<  c #5C1E35",
"1  c #651D35",
"2  c #7A1F3A",
"3  c #422936",
"4  c #462A38",
"5  c #552938",
"6  c #5B2C3A",
"7  c #443937",
"8  c #543439",
"9  c #57343A",
"0  c #692D3A",
"q  c #742539",
"w  c #6F313D",
"e  c #633B3B",
"r  c #3D4236",
"t  c #3E4239",
"y  c #47443A",
"u  c #464C3B",
"i  c #4A4C3D",
"p  c #514737",
"a  c #5D4E34",
"s  c #554E3B",
"d  c #495139",
"f  c #56563C",
"g  c #614437",
"h  c #605135",
"j  c #5B643E",
"k  c #6F603B",
"l  c #2D3347",
"z  c #6E2F45",
"x  c #792D44",
"c  c #6A3146",
"v  c #763348",
"b  c #3B404C",
"n  c #4C4543",
"m  c #474E40",
"M  c #4D4D41",
"N  c #4F474A",
"B  c #544E43",
"V  c #4F5142",
"C  c #4E524C",
"Z  c #555344",
"A  c #585445",
"S  c #5B5D44",
"D  c #55544B",
"F  c #56594C",
"G  c #555956",
"H  c #634C40",
"J  c #635246",
"K  c #6A5244",
"L  c #635D45",
"P  c #655B49",
"I  c #78544C",
"U  c #6A4758",
"Y  c #64515F",
"T  c #686647",
"R  c #676B46",
"E  c #6C6B4C",
"W  c #706E43",
"Q  c #79664A",
"!  c #736D4C",
"~  c #6C7443",
"^  c #6E7547",
"/  c #717A45",
"(  c #75754A",
")  c #766F50",
"_  c #767351",
"`  c #797552",
"'  c #777659",
"]  c #635662",
"[  c #7F7371",
"{  c #8A2538",
"}  c #872839",
"|  c #93263C",
" . c #972B39",
".. c #A22C36",
"X. c #A52C3B",
"o. c #AA2C3D",
"O. c #BC3339",
"+. c #C4353B",
"@. c #CC363D",
"#. c #CD383A",
"$. c #D33A3B",
"%. c #8D2A42",
"&. c #A22841",
"*. c #B72E40",
"=. c #BA2F41",
"-. c #876940",
";. c #8D774A",
":. c #917142",
">. c #957C43",
",. c #837D55",
"<. c #897958",
"1. c #7B8447",
"2. c #898648",
"3. c #828A4A",
"4. c #85904A",
"5. c #8D964D",
"6. c #8E984E",
"7. c #929348",
"8. c #939E4E",
"9. c #858155",
"0. c #8D8456",
"q. c #8E8A59",
"w. c #988856",
"e. c #928D5A",
"r. c #97905E",
"t. c #9A925D",
"y. c #A78C4C",
"u. c #A18F5C",
"i. c #A89B5B",
"p. c #B49C53",
"a. c #96A14F",
"s. c #98A34F",
"d. c #9CA752",
"f. c #9EA951",
"g. c #B6A24B",
"h. c #BCAB4D",
"j. c #BBB04C",
"k. c #A1AB52",
"l. c #AEA15B",
"z. c #BBA456",
"x. c #A6B153",
"c. c #ACB755",
"v. c #AEB955",
"b. c #B4BE57",
"n. c #9E9760",
"m. c #A49C61",
"M. c #AFA463",
"N. c #B3A764",
"B. c #B4AA67",
"V. c #BCAC63",
"C. c #B6AD6A",
"Z. c #BAAF6A",
"A. c #BDB26B",
"S. c #B4AD73",
"D. c #B4AE7B",
"F. c #B8B278",
"G. c #CEB65C",
"H. c #C7B768",
"J. c #C8BC6D",
"K. c #D5BF64",
"L. c #CABE70",
"P. c #B4C057",
"I. c #B8C056",
"U. c #B6C258",
"Y. c #B9C558",
"T. c #BECA5A",
"R. c #C4C957",
"E. c #C2CD5B",
"W. c #C6D25C",
"Q. c #C9D55D",
"!. c #CDD95E",
"~. c #CFC16F",
"^. c #DACA76",
"/. c #747D80",
"(. c #798183",
"). c #828A87",
"_. c #959D95",
"`. c #97A09B",
"'. c #AFA687",
"]. c #B2AD86",
"[. c #B1B086",
"{. c #B2B38B",
"}. c #A6AB99",
"|. c #B4B594",
" X c #A1AAA0",
".X c #BEC0A2",
"XX c #D4CC91",
"oX c #C0C6AB",
"OX c #D6D5A5",
/* pixels */
"Q.Q.Q.W.Q.Q.Q.!.Q.Q.Q.Q.W.Q.Q.Q.Q.W.Q.Q.Q.W.Q.Q.Q.Q.Q.!.Q.Q.Q.W.",
"Q.Q.W.Q.T.Y.Y.T.E.Q.Q.Q.Q.Q.Q.Q.Q.Q.Q.Q.Q.Q.Q.W.T.Y.Y.Y.E.Q.Q.Q.",
"Q.Q.Q.T.x.d.8.k.U.W.Q.Q.Q.Q.Q.Q.Q.!.Q.Q.!.Q.Q.E.x.d.8.f.U.W.W.Q.",
"Q.E.T.c.6./ ~ / d.b.U.U.Y.Y.Y.Y.I.Y.Y.I.Y.Y.Y.x.3.~ / 3.k.U.E.W.",
"Q.T.x.6.` j t u / 5.8.8.8.8.8.8.a.8.a.a.8.a.s.1.d t Z ^ 3.d.b.E.",
"!.P.4./ 9.E * # s R W W W W W W ~ k ~ k W ~ W f $ $ L _ ^ 1.x.E.",
"!.x.j S m.t.M # & 4 8 8 8 8 8 8 8 8 8 8 8 8 8 &   - r.m.S S 8.Y.",
"!.f.d V Z.F.F % > < 1 1 1 1 1 1 0 1 1 1 1 1 q ; X n C.S.D i 6.b.",
"!.f.d C D.[.F & q  ...X.X.X.X.X.X.X.X.X.X.X.X.{ o n D.D.D u 6.b.",
"!.f.d C [.{.G 4  .O.+.@.@.@.@.@.@.@.@.@.@.@.@...; N ].[.G m 6.P.",
"!.f.d C {.|.G 4  .+.#.$.$.$.$.@.$.$.$.@.$.$.$...; N |.|.G m 6.P.",
"!.s.d C [.|.G 4 } O.+.+.+.O.O.O.O.O.O.+.+.@.@.X.; N ].{.G m 6.P.",
"!.f.i V S.F.F 3 } *.=.*. .{ %.{ { { { | o.=.=.| : N S.S.C u 6.P.",
"!.f.d d B.C.A % 0 %. .%.x z c v c c c x %. .&.2 o y N.C.D i 6.P.",
"!.f.d Z B.Z.Z % < 2 2 x U Y Y ] ] ] Y U v } } 1 X 7 N.C.A u 6.P.",
"!.f.d d C.A.R 7 9 0 0 v <.(././.(.(.(.[ U z w 6 % A A.Z.D i 6.P.",
"!.f.d M C.L.9.T P g e Q '.oX X X`. X.X|.<.K K H B ` L.A.D u 6.P.",
"!.k.d u m.A.n.9.` ! k w.XXOX}.).(._.OXOXu.Q Q ( ` e.L.M.B u 6.P.",
"!.k.d t 9.m.t.t.n.q.>.y.^.~.' l l G F.^.p.>.w.e.e.m.B.e.b u 6.P.",
"!.k.d = T ,.,.9.<.;.-.>.H.V.P $ + V m.J.y.:.;.<.<.,.0.! = t 5.P.",
"!.k.d * p s 7 - 8 9 9 K u.u.! Z V T n.t.I e e 8 = - a p @ r 5.P.",
"!.k.d = h a @ X O > , 6 K ) ` ` ` ` ' Q e 5 , O . @ a a @ r 5.P.",
"!.f.d y >.>.y X : 1 1 < 3 y ) q.r.` Z & < < 1 , . = >.>.7 u 5.P.",
"!.f.d p p.z.L 7 6 0 w 6 & l E q.r.` m = 5 w w 6 % s z.g.p u 5.P.",
"!.f.d M N.H.,.L P J J J B A T ) _ E A Z J J K A B ) H.H.s u 6.b.",
"!.f.d d N.~.i.,.` ( ` ` ` _ _ _ _ _ ` ` _ ` _ _ ) t.~.V.Z u 6.b.",
"!.f.d i i.K.N.n.t.r.r.r.e.r.e.e.e.r.r.r.e.n.r.r.r.N.^.z.B u 6.b.",
"!.x.f f p.G.l.t.e.q.q.q.e.e.e.e.e.e.q.e.q.q.q.q.q.i.K.G.h f 8.P.",
"Q.c.~ W g.h.2.( R R R R R R R T T T R R R R R R R 2.h.g.W ~ f.Y.",
"Q.U.8.7.j.j.7./ 1./ / / / / / / / / / / / / / / ^ 3.h.h.7.8.c.E.",
"Q.E.I.Y.R.R.I.b.c.c.c.c.c.c.c.c.c.c.c.c.c.c.c.c.c.v.R.R.P.b.E.Q.",
"Q.Q.Q.!.Q.Q.Q.Q.Q.!.!.!.!.!.!.!.!.!.!.!.!.!.!.!.!.!.Q.!.!.Q.Q.Q."
};
