/* XPM */
static char *_2240acf212d4fa8b743e5538af7ee322r4E3cj74tMPdAYQ[] = {
/* columns rows colors chars-per-pixel */
"32 32 54 1 ",
"  c #2F2F2E",
". c #3A3532",
"X c #383931",
"o c #42362E",
"O c #433A35",
"+ c #4E3E33",
"@ c #4F3F33",
"# c #483D37",
"$ c #483E36",
"% c #59402F",
"& c #424435",
"* c #4D4039",
"= c #4C4E38",
"- c #51423B",
"; c #57463A",
": c #54443C",
"> c #564A3C",
", c #56593C",
"< c #585A3D",
"1 c #634430",
"2 c #6C4830",
"3 c #614939",
"4 c #734F37",
"5 c #5F623E",
"6 c #676341",
"7 c #716846",
"8 c #737745",
"9 c #787048",
"0 c #845A3D",
"q c #8B5A39",
"w c #8A5D3E",
"e c #8E5D3C",
"r c #925F3E",
"t c #855F46",
"y c #966240",
"u c #986441",
"i c #A06A47",
"p c #A9734E",
"a c #B07853",
"s c #B27954",
"d c #87824D",
"f c #848A4C",
"g c #898D4E",
"h c #8C8F4E",
"j c #959452",
"k c #989F53",
"l c #A1A956",
"z c #ABB45A",
"x c #B2B85D",
"c c #B5BE5D",
"v c #B9C05F",
"b c #BFC961",
"n c #C1CA62",
"m c #C8D365",
/* pixels */
"mmmmmmmmmmmmmmmmmmmmmmmmmmmmmmmm",
"mmmmmmmmmmmmmmmmmmmmmmmmmmmmmmmm",
"mmmmmmmmmmmmmmmmmmmmmmmmmmmmmmmm",
"mmmmmmmmmmmmmmmmmmmmmmmmmmmmmmmm",
"mmmmmmmmmmmmmmmmmmmmmmmmmmmmmmmm",
"mmmmmmmmmmmmmmmmmmmmmmmmmmmmmmmm",
"mmmmmmmmmmmmmmmmmmmmmmmmmmmmmmmm",
"mmmmmmmmmmmmmmmmmmmmmmmmmmmmmmmm",
"mmmmmmmmmmmmmmmmmmmmmmmmmmmmmmmm",
"mmmmmmmmmmmmmmmmmmmmmmmmmmmmmmmm",
"mmmmmmmmmmmmmmmmmmmmmmmmmmmmmmmm",
"mmmmmmmmczzbmmmmmmmmczzbmmmmmmmm",
"mmmmmmmc6$$hbmmmmmmc6$$hbmmmmmmm",
"mmmmmmm5tas;kmmmmmm5tas;kmmmmmmm",
"mmmmmmm51eu@fzzzzzz,1eu@kmmmmmmm",
"mmmmmmm51eu3$$$$$$$$4ru@kmmmmmmm",
"mmmmmmm51rrpsssassssauu*kmmmmmmm",
"mmmmmmm51ryr00000000eyu%kmmmmmmm",
"mmmmmmm51qu@        1eu@kmmmmmmm",
"mmmmmcx<1eu3$###$$$$4ru%hxbmmmmm",
"mmmmc7;.1eypaaaasssssiu*#:jnmmmm",
"mmmb7::.1euwtt000000eyu##::jbmmm",
"mmm9:-@.1qr@        1qr@##+:lmmm",
"mmmt>.  @22o        %22o  O5zmmm",
"mmmm8&                    &lmmmm",
"mmmmm8=X                &>lmmmmm",
"mmmmmmm8==X          &==lmmmmmmm",
"mmmmmmmmmm8==========lmmmmmmmmmm",
"mmmmmmmmmmmmmmmmmmmmmmmmmmmmmmmm",
"mmmmmmmmmmmmmmmmmmmmmmmmmmmmmmmm",
"mmmmmmmmmmmmmmmmmmmmmmmmmmmmmmmm",
"mmmmmmmmmmmmmmmmmmmmmmmmmmmmmmmm"
};
