/* XPM */
static char *result[] = {
/* columns rows colors chars-per-pixel */
"32 32 176 2 ",
"   c #060B27",
".  c #090E28",
"X  c #0C1029",
"o  c #14142B",
"O  c #18192D",
"+  c #1B182F",
"@  c #111737",
"#  c #151B35",
"$  c #1B1D34",
"%  c #151B38",
"&  c #1E1F38",
"*  c #221C32",
"=  c #2B1E33",
"-  c #1C2137",
";  c #2D2134",
":  c #252739",
">  c #322334",
",  c #3C2637",
"<  c #332639",
"1  c #3B2739",
"2  c #362E3E",
"3  c #3E2B3A",
"4  c #2E3433",
"5  c #363D35",
"6  c #3A3E37",
"7  c #383E3B",
"8  c #452A3A",
"9  c #442B3B",
"0  c #4D313E",
"q  c #56323E",
"w  c #3D4536",
"e  c #3C423A",
"r  c #404737",
"t  c #424937",
"y  c #40463B",
"u  c #4E453E",
"i  c #51443E",
"p  c #574C3F",
"a  c #5C633F",
"s  c #5F693F",
"d  c #646E3F",
"f  c #1A3752",
"g  c #2A2B41",
"h  c #292F4E",
"j  c #2B314D",
"k  c #313747",
"l  c #3E3443",
"z  c #3D374C",
"x  c #292F51",
"c  c #2C3252",
"v  c #3A3C56",
"b  c #363D5E",
"n  c #383E5E",
"m  c #433745",
"M  c #4A3645",
"N  c #4C3B47",
"B  c #443C4B",
"V  c #4D3D4A",
"C  c #573542",
"Z  c #5D3441",
"A  c #463B52",
"S  c #613643",
"D  c #663A45",
"F  c #6A3945",
"G  c #753E49",
"H  c #793F4A",
"J  c #3C415D",
"K  c #3A4060",
"L  c #4A4147",
"P  c #4F414B",
"I  c #514449",
"U  c #5D5A47",
"Y  c #565248",
"T  c #5C554B",
"R  c #444254",
"E  c #41445D",
"W  c #4D455D",
"Q  c #5C4656",
"!  c #51465F",
"~  c #5A495C",
"^  c #6B4046",
"/  c #7A494C",
"(  c #625C4B",
")  c #654C52",
"_  c #654B5B",
"`  c #734A53",
"'  c #7C4D54",
"]  c #725A59",
"[  c #5B6240",
"{  c #626A41",
"}  c #677041",
"|  c #6A7342",
" . c #777B47",
".. c #767F49",
"X. c #474862",
"o. c #544760",
"O. c #554860",
"+. c #5A5569",
"@. c #6A5A67",
"#. c #7D5661",
"$. c #755A67",
"%. c #665E70",
"&. c #4E627A",
"*. c #78606B",
"=. c #6F6372",
"-. c #835157",
";. c #8A5558",
":. c #935555",
">. c #93585A",
",. c #9D5A58",
"<. c #99625F",
"1. c #835761",
"2. c #825F67",
"3. c #9A5E61",
"4. c #81626E",
"5. c #8E6E6A",
"6. c #9C6567",
"7. c #967B6B",
"8. c #9A7D6E",
"9. c #987874",
"0. c #9A7D74",
"q. c #A76F69",
"w. c #AF7F74",
"e. c #B07770",
"r. c #7E814D",
"t. c #81854B",
"y. c #83894C",
"u. c #888F4D",
"i. c #8C944D",
"p. c #929D4E",
"a. c #9AA54F",
"s. c #9CA651",
"d. c #9EA951",
"f. c #A3AE52",
"g. c #A6B153",
"h. c #AAB654",
"j. c #AEB855",
"k. c #A28172",
"l. c #AB857D",
"z. c #BC8A7B",
"x. c #B8907F",
"c. c #CA8577",
"v. c #C18D7E",
"b. c #D9907E",
"n. c #BAC659",
"m. c #BEC95A",
"M. c #C2CE5B",
"N. c #C6D25C",
"B. c #C8D45D",
"V. c #CDD95E",
"C. c #D0DC5F",
"Z. c #3E7F95",
"A. c #576A80",
"S. c #497A8F",
"D. c #5C7085",
"F. c #5B7E92",
"G. c #3D8095",
"H. c #5E8395",
"J. c #628E9E",
"K. c #6390A0",
"L. c #948A97",
"P. c #9B919C",
"I. c #BD9282",
"U. c #B3968C",
"Y. c #B69992",
"T. c #ADA3A8",
"R. c #BBACAE",
"E. c #C39585",
"W. c #C89987",
"Q. c #C89B8A",
"!. c #C79E90",
"~. c #CEA293",
"^. c #D9AB9B",
"/. c #EEAF95",
"(. c #F8B69A",
"). c #FFC2A2",
/* pixels */
"B.B.B.B.B.B.B.B.N.a.5     . . . . . . . X w g.V.V.N.B.B.B.B.N.B.",
"B.B.B.B.B.B.B.n.f...5 o # # # # - # # - - e r.n.m.V.B.B.B.B.B.B.",
"B.B.B.B.B.B.B.f.[ J j x j h h g h h h h h k w | j.V.B.B.B.B.B.N.",
"B.B.B.B.B.n.f...7 : c b J b b b b b b b J c g e r.n.m.B.B.B.B.B.",
"B.B.B.B.M.f.{ 7 c c b b n b b b J b b b b c x k J | h.V.B.B.B.B.",
"B.B.B.B.M.p.e % x b b b b b n n b b b J b J b h - w d.V.V.N.B.B.",
"B.B.B.B.M.p.5 % x K n n b n b b b b b b b b b h - t d.B.V.N.N.B.",
"B.B.B.B.M.p.5 % x K n b b b b n b b b b b b b h - t d.V.B.B.B.B.",
"B.B.B.B.M.i.5 % c n b b n b b b b b b b b b b h - w s.V.V.N.N.N.",
"B.M.B.B.B.p.5 @ c b n b b b n b b b b b b b b h - w d.V.V.N.N.V.",
"B.B.B.B.B.p.5 @ c n n b b b b b b b b b b b b h O w f.C.V.N.N.N.",
"B.B.B.n.f.t.Y z b b b n b b b b b b b b b b b v L [ i.h.m.V.N.V.",
"B.B.N.s.{ ( 9.9.+.b b b b b b b b b b n K b J +.0.8.[ } h.V.N.N.",
"B.B.M.p.r P I.!.%.c b b b b b b b n b b b b K =.!.I.L w s.V.V.N.",
"B.N.m.p.6 V E.Q.%.b b b b b b b b b b n b b K =.~.I.L w a.V.V.N.",
"B.B.N.s.[ T k.U.$.X.b b b b b b n b b b b K o.*.l.k.Y s g.V.V.N.",
"B.B.N.n.s.t.( ) 1.#.W b b b b b b b b b b o.#.;.) ( y.f.m.B.B.B.",
"B.B.B.B.M.i.6 > G -._ O.o.o.K b K X.! ! ~ _ ' ^ < w s.B.B.B.B.B.",
"B.B.B.B.N.p.5 X = C -.3.3.#.X.b K O.1.3.<.' 0 = O w d.C.V.B.B.B.",
"B.B.B.m.f.t.Y B A _ ;.,.:.` A x c A ' :.,.-.Q R L U u.h.m.B.B.B.",
"N.B.M.f.d T 0.Y.T.L.$.Z 8 < & % $ * < M D 2.P.T.U.7.U d j.C.V.N.",
"N.m.g.y.( ] v.^.R.L._ 8 < = * + + * = 1 C @.P.R.^.z.] T u.j.m.B.",
"M.f.{ ( 0.v.c.q.@.R M Z S Z 9 1 1 9 S S C M ! $.e.c.x.7.[ } h.C.",
"M.a.y V E./.b.6.3 + 8 S G G F S S F H G q , * M q.b./.I.L w s.C.",
"M.p.e V Q.)./.w.m + 8 q S F / H H G F Z q , * L z.(.).I.m w a.V.",
"M.f.[ ) k.Q.E.5.2 o = 9 V ) $.*.2.$.Q N 9 > + 7 8.W.I.w.Y s g.V.",
"N.j.f. .T V V l $ X O g X.A.H.K.J.F.&.E : o o $ m V I ( y.f.m.B.",
"N.N.M.f.U 6 7 4 O O ; N +.D.S.G.Z.S.&.+.m = o O 4 w y { g.B.B.B.",
"B.B.N.n.d.p.i.| 4 = F >.6.$.J f f E 4.<.:.^ * 4  .p.p.f.m.B.B.B.",
"B.B.B.N.N.M.m.a.a i / :.:./ u e e I -.:.;./ u s f.N.M.M.B.B.B.B.",
"B.B.B.B.B.B.B.n.a. .u 3 3 p t.p.p. .i , 9 p t.f.m.B.B.B.B.B.B.B.",
"N.B.B.B.B.B.B.B.m.p.5 X o t a.M.M.p.6 X o t a.B.B.B.N.B.B.B.B.B."
};
