/* XPM */
static char *result[] = {
/* columns rows colors chars-per-pixel */
"32 32 171 2 ",
"   c #090E28",
".  c #0B1029",
"X  c #1A1D2D",
"o  c #131531",
"O  c #151A35",
"+  c #1E2437",
"@  c #24243C",
"#  c #2B3033",
"$  c #373B35",
"%  c #31373C",
"&  c #333A3D",
"*  c #422C39",
"=  c #4C2C3B",
"-  c #4B3B3D",
";  c #3D443D",
":  c #47453D",
">  c #50413E",
",  c #535A3E",
"<  c #636C3F",
"1  c #1D2242",
"2  c #262B48",
"3  c #2A2F4E",
"4  c #2E3446",
"5  c #2B314D",
"6  c #353B43",
"7  c #3C3B46",
"8  c #31354C",
"9  c #272E50",
"0  c #2D3354",
"q  c #2D3558",
"w  c #303656",
"e  c #313857",
"r  c #363C5D",
"t  c #393E5F",
"y  c #463747",
"u  c #573947",
"i  c #593B47",
"p  c #453E51",
"a  c #603742",
"s  c #3D4445",
"d  c #3F415D",
"f  c #3D4160",
"g  c #304D63",
"h  c #45444F",
"j  c #51434B",
"k  c #5D454D",
"l  c #495346",
"z  c #545B44",
"x  c #5E564C",
"c  c #5E5A49",
"v  c #4A4256",
"b  c #47455A",
"n  c #554958",
"m  c #4C5655",
"M  c #575755",
"N  c #674548",
"B  c #74474C",
"V  c #66554A",
"C  c #725449",
"Z  c #6A4A52",
"A  c #744951",
"S  c #675155",
"D  c #64535A",
"F  c #785758",
"G  c #5C6445",
"H  c #5A6155",
"J  c #566A50",
"K  c #676244",
"L  c #656E40",
"P  c #6A6846",
"I  c #706E4C",
"U  c #6C7445",
"Y  c #6F7846",
"T  c #6F7848",
"R  c #747D4B",
"E  c #7A675C",
"W  c #6F7655",
"Q  c #434562",
"!  c #4B4B65",
"~  c #4A5A6A",
"^  c #575369",
"/  c #5D566A",
"(  c #6D5C67",
")  c #635A6D",
"_  c #795461",
"`  c #446A6B",
"'  c #6A626C",
"]  c #756364",
"[  c #7E6364",
"{  c #7E6568",
"}  c #676677",
"|  c #7D6671",
" . c #766A77",
".. c #7E6A74",
"X. c #835353",
"o. c #865858",
"O. c #846766",
"+. c #88676A",
"@. c #82696D",
"#. c #956A66",
"$. c #91666E",
"%. c #897460",
"&. c #95756B",
"*. c #997C6D",
"=. c #816F78",
"-. c #946570",
";. c #8C767C",
":. c #977C7F",
">. c #9C7C7B",
",. c #A36C65",
"<. c #AB7169",
"1. c #A77674",
"2. c #A47E75",
"3. c #B77E77",
"4. c #7D8547",
"5. c #7F884B",
"6. c #7B8350",
"7. c #7D827B",
"8. c #838C4A",
"9. c #87904D",
"0. c #8B924E",
"q. c #91964E",
"w. c #929C4F",
"e. c #8A9451",
"r. c #9CA650",
"t. c #9EA951",
"y. c #A1AC52",
"u. c #A7B253",
"i. c #A9B454",
"p. c #AEB955",
"a. c #B1BC56",
"s. c #A28172",
"d. c #A38179",
"f. c #AE8579",
"g. c #AE887B",
"h. c #C28F7E",
"j. c #B5C157",
"k. c #BBC759",
"l. c #BDC95A",
"z. c #C1CC5B",
"x. c #C5D15C",
"c. c #C8D45D",
"v. c #CDD95F",
"b. c #447685",
"n. c #837E86",
"m. c #57808F",
"M. c #558697",
"N. c #74848C",
"B. c #5B8CA0",
"V. c #6599AA",
"C. c #878B91",
"Z. c #958D98",
"A. c #A98786",
"S. c #B78D85",
"D. c #BD9284",
"F. c #B7938A",
"G. c #BB958B",
"H. c #AC8590",
"J. c #8D96A5",
"K. c #A499A6",
"L. c #C89686",
"P. c #D99E8B",
"I. c #D2A18E",
"U. c #D9A28E",
"Y. c #D6A794",
"T. c #DAA792",
"R. c #DCAA96",
"E. c #E1A58D",
"W. c #E1AC96",
"Q. c #ECB197",
"!. c #EBB69C",
/* pixels */
"c.c.c.c.c.c.c.l.y.Y #       . . . .   X ; < p.v.c.c.c.c.c.c.c.c.",
"c.c.c.c.c.c.z.i.9.G # o O O O O O O O + $ G w.j.x.c.c.c.c.c.c.c.",
"c.c.c.c.v.l.p.9.z 6 5 3 3 3 5 3 5 5 3 5 4 h G 8.j.v.c.c.c.c.c.c.",
"c.c.c.x.l.i.9.K 6 2 w r r r r r r r r e 0 8 s G w.j.l.c.x.c.c.c.",
"c.c.c.l.i.9.z 6 q w r r r r r t r r t r r w 8 s G 9.j.c.c.c.c.c.",
"c.c.c.l.y.R 6 1 q r r r t t r r r r r r r w 0 4 ; L i.v.c.c.c.c.",
"c.c.c.l.t.T & 1 q r r r r r t r r r r r t r 0 4 ; < i.v.c.c.c.c.",
"c.c.c.l.t.T & 1 q t t t r t r t Q ! ! ! d q 9 4 ; L i.c.c.c.c.c.",
"c.c.c.l.t.Y % 1 q r r r r r r Q ^  .;...! q 9 4 ; L i.c.c.c.c.c.",
"c.c.c.l.t.T & 1 q d r r r r r Q ) ;.G.F.=.^ n h : L p.c.c.c.c.c.",
"c.c.c.l.t.Y & 1 q f f r r r r Q ) :.Y.!.Y.F.>.] z L i.v.c.c.c.c.",
"c.c.c.l.t.R & 1 q r r r r r r p ^ ..S.I.Y.I.D.&.c L u.c.v.c.c.c.",
"c.c.c.k.t.Y % 1 0 r r r r r r r d b n ( ;.>.g.*.c L i.c.c.c.c.c.",
"c.c.c.k.t.Y % 1 0 f Q ! / / / ^ Q b v n M { 2.*.c L u.v.c.c.c.c.",
"c.c.c.k.t.Y % 1 0 Q ^ ..F.G.A.;.} ( @.O.D F 2.*.G L i.c.c.c.c.c.",
"c.c.c.l.u.5.l 4 0 t / :.Y.Q.L.n.....2.*.S S #.&.c G i.c.c.c.c.c.",
"c.c.c.x.k.u.5.z 4 5 ) :.P.P.3.$.| ..d.&.k i X.F , < u.v.c.c.c.c.",
"c.c.c.c.c.l.u.5.l 7 n ..S.L.3.1.>.A.D.f.F k B C V 4.a.c.c.c.c.c.",
"x.c.c.x.c.x.k.y.8.c y v @.A.I.W.R.W.!.T.f.O.V K q.p.z.c.c.c.c.c.",
"c.c.c.c.c.c.c.k.r.U % 2 p +.L.E.W.U.L.D.s.%.P 4.p.c.c.c.c.c.x.c.",
"c.x.c.c.c.c.c.l.r.Y # o @ u o.,.<.#.Z j x I q.p.z.c.c.c.c.c.x.c.",
"c.c.c.c.c.c.c.l.r.Y & + 8 u u N B B y y M W r.j.z.c.c.c.c.c.c.c.",
"c.c.c.c.c.c.c.k.t.6.m ! b.| y * a B _ -.n.7.W 8.a.v.c.c.c.c.c.c.",
"c.c.x.c.c.c.c.k.r.6.M ' H.n.j * = B $.n.K.C.M < i.c.c.c.c.c.x.c.",
"c.c.c.c.c.c.c.k.r.6.S ] F.S.o.i = i $.H.K.C.H < u.v.c.c.c.c.c.c.",
"x.c.c.c.c.c.c.k.r.6.c [ L.P.<.A y v ..Z.J.N.M < u.v.v.x.c.x.c.c.",
"c.c.c.x.c.c.c.k.r.R V [ U.Q.h.O.d g M.V.B.b.l L u.v.c.c.c.c.c.x.",
"c.c.c.c.c.c.c.l.u.9.I E g.D.1.O.M ~ m.M.b.` J 4.a.c.c.c.c.c.c.c.",
"c.x.c.c.c.c.c.z.k.u.9.I x y k C o.#.O.) m J e.p.z.v.c.c.x.c.c.c.",
"c.c.c.c.c.c.c.c.c.k.u.8., : > N X.X.A C K 4.p.c.c.x.c.c.c.c.c.c.",
"c.c.c.c.c.c.c.c.c.x.k.p.r.0.8.V - * > P q.a.z.c.x.c.c.c.c.c.x.c.",
"c.c.x.c.c.c.c.c.c.c.c.x.x.j.r.Y # X $ P u.x.c.c.c.c.c.c.x.c.c.c."
};
