/* XPM */
static char *result[] = {
/* columns rows colors chars-per-pixel */
"32 32 156 2 ",
"   c #000626",
".  c #060B27",
"X  c #060C29",
"o  c #080E2A",
"O  c #0B1029",
"+  c #0F1435",
"@  c #111635",
"#  c #151A36",
"$  c #1A1D3A",
"%  c #1A1E3D",
"&  c #271B2F",
"*  c #26233D",
"=  c #28243A",
"-  c #342235",
";  c #37283B",
":  c #313736",
">  c #343B33",
",  c #383F35",
"<  c #33393B",
"1  c #452A3B",
"2  c #473D3A",
"3  c #55313D",
"4  c #374035",
"5  c #3A4135",
"6  c #4D423C",
"7  c #50453E",
"8  c #5B643E",
"9  c #182042",
"0  c #152A43",
"q  c #1D324F",
"w  c #262A49",
"e  c #2C324A",
"r  c #373042",
"t  c #3D3443",
"y  c #31344D",
"u  c #2A2F51",
"i  c #2C3252",
"p  c #2F385B",
"a  c #313B56",
"s  c #3B3C50",
"d  c #353C5E",
"f  c #383E5F",
"g  c #393F60",
"h  c #413545",
"j  c #433946",
"k  c #453B4B",
"l  c #493E4B",
"z  c #553D49",
"x  c #6D3B46",
"c  c #733A47",
"v  c #334A4C",
"b  c #3D405C",
"n  c #356C7D",
"m  c #594049",
"M  c #5A5447",
"N  c #575248",
"B  c #424154",
"V  c #4F475A",
"C  c #54475A",
"Z  c #53495B",
"A  c #5B4B5A",
"S  c #535A56",
"D  c #704047",
"F  c #7D404B",
"G  c #7C4A4C",
"H  c #7E504D",
"J  c #674D52",
"K  c #424562",
"L  c #4F4A61",
"P  c #544E62",
"I  c #5B556A",
"U  c #645461",
"Y  c #665D6F",
"T  c #7D5867",
"R  c #695F70",
"E  c #776060",
"W  c #7D646E",
"Q  c #6B6071",
"!  c #874C4F",
"~  c #884F51",
"^  c #985555",
"/  c #866C6F",
"(  c #9F6160",
")  c #8D777C",
"_  c #9D7C73",
"`  c #A26561",
"'  c #A56B6A",
"]  c #B2736C",
"[  c #A77572",
"{  c #A27B73",
"}  c #AE757E",
"|  c #B47570",
" . c #C47B6E",
".. c #77864E",
"X. c #798249",
"o. c #82854A",
"O. c #858B4E",
"+. c #868F53",
"@. c #97A24F",
"#. c #98A34F",
"$. c #9AA450",
"%. c #9EA952",
"&. c #A5AF52",
"*. c #A6B153",
"=. c #A9B454",
"-. c #A78478",
";. c #BC897B",
":. c #D48B7B",
">. c #E3957F",
",. c #BFCB5A",
"<. c #C1CD5B",
"1. c #C8D45D",
"2. c #CDD95E",
"3. c #D1DD5F",
"4. c #D3DF60",
"5. c #436F83",
"6. c #5E7E8C",
"7. c #45889D",
"8. c #578CA2",
"9. c #5F98A7",
"0. c #65A0B1",
"q. c #71B5C5",
"w. c #93838F",
"e. c #888C9C",
"r. c #8E939C",
"t. c #A68581",
"y. c #AB8B86",
"u. c #9D93A1",
"i. c #91A5B5",
"p. c #B8AEB5",
"a. c #C49586",
"s. c #C69987",
"d. c #C99B87",
"f. c #C79988",
"g. c #CA9C89",
"h. c #D49E8D",
"j. c #E99984",
"k. c #CFA08D",
"l. c #C1A096",
"z. c #D4A795",
"x. c #D6A896",
"c. c #DAA994",
"v. c #DBAA95",
"b. c #E1AC94",
"n. c #ECAD94",
"m. c #E0AF9A",
"M. c #E5B29B",
"N. c #F2B095",
"B. c #FFBC9C",
"V. c #C5B6B9",
"C. c #FABFA0",
"Z. c #FDC3A3",
"A. c #FFC9A6",
"S. c #B0B3C1",
"D. c #B4BFCA",
"F. c #DAC7CE",
/* pixels */
"1.1.1.1.1.<.1.2.4.&., . X o O O O O O O X 5 &.2.1.1.1.1.1.1.1.1.",
"1.1.1.1.1.1.1.<.=.X.< # # # # # # # # # # < E ,.,.1.1.1.1.1.1.1.",
"1.1.1.1.1.1.3.=.8 < e i i y i i i i e i i y < 8 =.3.1.1.1.1.1.1.",
"1.1.1.1.1.,.=.X.< 9 i g f f g f f f g g g i 9 < X.=.,.1.1.1.1.1.",
"1.1.1.1.2.*.8 < e i d g g d g g f f f f f d i e > 8 =.1.1.1.1.1.",
"1.1.1.2.2.$.> + u g d d d d d d f f d d d f g u O 4 #.2.1.1.1.1.",
"1.1.1.2.2.$.> @ u g f f d d g d f f f f d f f u @ 4 #.2.1.1.1.1.",
"1.1.1.1.2.$., @ u d d g I I g g d f d d f f f e @ 4 #.2.1.1.1.1.",
"1.1.1.2.2.#.4 # u d p I y.y.Y d d f f d d f f i @ 4 %.2.2.1.1.1.",
"<.1.1.2.2.#.> $ V Y Q ) M.x.R d d f d f f f f u @ 4 #.2.1.1.1.1.",
"1.<.1.1.2.@., ; _ z.z.M.A.z.Q p d d d f d f f u @ 4 #.2.2.<.1.1.",
"1.1.1.2.2.@., k f.Z.v.k.g.-.I d p d d d d f f u @ 4 $.2.2.1.1.1.",
"1.1.1.2.2.@.> j f.m./ A A V b d d d p d f g f u @ , $.2.1.1.1.1.",
"1.1.1.1.2.@.> k f.k.Z * k V b K I R R I g g g u @ > $.2.2.1.1.1.",
"1.1.1.2.2.@.: k g.g.l r _ t.I I y.x.z.y.I g g u + > $.2.1.1.1.1.",
"1.1.1.1.2.@.: h ;.;.t j d.z.Y I a.B.Z.z.R p u e < 8 *.1.1.1.1.1.",
"1.1.1.2.2.@.> ; ` ` - 2 f.z.Y C ' >.B.x.R u % < E ,.,.1.1.1.,.2.",
"1.1.1.1.1.*.8 6 G G z E c.m.) W ] :.h.t.P e : 8 *.1.2.1.1.1.1.1.",
"<.1.1.2.1.<.=.X.2 z _ c.C.Z.v.c.N.h.) L w < X.*.,.2.2.1.1.1.1.1.",
"1.1.<.1.1.2.2.*.8 N -.s.s.g.n.N.b.-.Z 9 o , %.4.2.,.1.1.,.1.1.1.",
"1.1.1.1.1.1.1.<.=.O.M j t J ]  .( m = o o , %.2.2.1.,.1.2.1.1.1.",
"1.1.1.1.1.1.1.<.=.+.S y = 1 ! ~ 3 r s e # , $.2.2.1.2.1.1.1.1.1.",
"1.1.1.1.1.1.1.&.8 S r.u.T x x 3 & s e.e.y > $.2.1.1.1.1.1.1.1.1.",
"1.1.<.1.1.2.2.@.: b S.F.} F 3 - - U V.p.B : $.2.1.1.1.1.1.2.,.1.",
"1.1.1.1.1.2.2.@.> s S.F.} c - - D | M.l.s > @.2.2.1.1.,.2.1.1.1.",
"1.1.1.1.1.2.2.@.> a i.D.w.A * ; ( j.B.a.2 > @.2.1.1.1.1.1.1.1.1.",
"1.1.1.<.1.2.2.@.> q 8.q.0.5.0 1 ;.Z.A.s.t : @.2.2.1.1.1.1.1.1.1.",
"1.1.1.1.1.1.2.&.8 v n 7.9.6.B z { d.s._ N 8 *.2.1.1.1.1.1.1.2.,.",
"1.1.1.1.1.2.1.<.=...v a W [ ( ~ m t t N ..=.,.1.1.1.1.1.1.1.1.1.",
"1.1.1.1.<.1.1.1.2.=.8 6 G ^ ^ H 6 > > 8 *.2.3.1.1.1.1.1.1.1.2.,.",
"1.1.<.1.1.1.1.1.2.,.=.o.7 - - 7 ..$.#.*.,.2.1.1.1.1.2.1.1.1.1.1.",
"1.1.1.1.1.1.1.1.1.2.3.%.4     4 &.3.3.2.1.1.1.1.2.,.,.1.1.1.1.1."
};
