/* XPM */
static char *result[] = {
/* columns rows colors chars-per-pixel */
"32 32 199 2 ",
"   c #090E28",
".  c #0B1029",
"X  c #1D1E2F",
"o  c #151A35",
"O  c #221D32",
"+  c #1D202E",
"@  c #232435",
"#  c #2A2A35",
"$  c #3A283B",
"%  c #2E353A",
"&  c #363636",
"*  c #33393F",
"=  c #422D3D",
"-  c #482A3C",
";  c #46383B",
":  c #51343F",
">  c #3D433A",
",  c #424539",
"<  c #434B3F",
"1  c #484E3B",
"2  c #534A3E",
"3  c #4F583C",
"4  c #51563D",
"5  c #232846",
"6  c #2B2F4D",
"7  c #2C3345",
"8  c #2B314C",
"9  c #373746",
"0  c #31374B",
"q  c #2C3754",
"w  c #313654",
"e  c #373B59",
"r  c #363C5D",
"t  c #482F40",
"y  c #4A3948",
"u  c #523443",
"i  c #5B3B44",
"p  c #5A3846",
"a  c #423D54",
"s  c #673A48",
"d  c #713C49",
"f  c #3E4559",
"g  c #3E4261",
"h  c #424844",
"j  c #4B494D",
"k  c #564849",
"l  c #555947",
"z  c #454154",
"x  c #4A4458",
"c  c #534554",
"v  c #5B4B5B",
"b  c #545451",
"n  c #68484A",
"m  c #79454C",
"M  c #675B46",
"N  c #7A504D",
"B  c #6E4553",
"V  c #784752",
"C  c #724B53",
"Z  c #7C4E52",
"A  c #6B5355",
"S  c #6A5E52",
"D  c #62515C",
"F  c #6C565B",
"G  c #6E595D",
"H  c #7A5558",
"J  c #646C43",
"K  c #6C6A45",
"L  c #68674B",
"P  c #746F4E",
"I  c #6C7444",
"U  c #6F7944",
"Y  c #717945",
"T  c #75754D",
"R  c #77794B",
"E  c #7A7B4B",
"W  c #6B6051",
"Q  c #776956",
"!  c #787350",
"~  c #454662",
"^  c #4A4A64",
"/  c #534E63",
"(  c #5B5669",
")  c #545B72",
"_  c #675866",
"`  c #645A6B",
"'  c #775862",
"]  c #7A6163",
"[  c #79646A",
"{  c #796869",
"}  c #746672",
"|  c #7B6A77",
" . c #7C6A74",
".. c #824F4F",
"X. c #854E57",
"o. c #885255",
"O. c #825D5E",
"+. c #8D5B5C",
"@. c #94575D",
"#. c #826C5C",
"$. c #98615F",
"%. c #85755D",
"&. c #895D62",
"*. c #915D63",
"=. c #836363",
"-. c #886663",
";. c #846968",
":. c #8D6D6A",
">. c #946563",
",. c #9A636C",
"<. c #8D7466",
"1. c #8E7469",
"2. c #96746C",
"3. c #887177",
"4. c #8B747A",
"5. c #937473",
"6. c #9D7D74",
"7. c #947A78",
"8. c #937A7D",
"9. c #9C7C7B",
"0. c #A76B67",
"q. c #A9736F",
"w. c #B6766C",
"e. c #A77476",
"r. c #B87C74",
"t. c #C37B6F",
"y. c #C67C74",
"u. c #7D8548",
"i. c #7F894B",
"p. c #848C4B",
"a. c #86894D",
"s. c #8B924D",
"d. c #949E4E",
"f. c #969D51",
"g. c #96A14E",
"h. c #98A24F",
"j. c #98A350",
"k. c #9BA452",
"l. c #A3AD53",
"z. c #A6B153",
"x. c #AAB555",
"c. c #AEB955",
"v. c #B1BD56",
"b. c #AD8071",
"n. c #A3827E",
"m. c #AB847B",
"M. c #BA8578",
"N. c #B48A7C",
"B. c #C88579",
"V. c #B5C157",
"C. c #B7C258",
"Z. c #BAC558",
"A. c #BECA5A",
"S. c #C2CE5B",
"D. c #C6D25C",
"F. c #C9D55D",
"G. c #CCD95E",
"H. c #537489",
"J. c #55768C",
"K. c #8F7280",
"L. c #AB7F85",
"P. c #458197",
"I. c #668599",
"U. c #6D91A6",
"Y. c #72A3B5",
"T. c #77B1C3",
"R. c #9C8B94",
"E. c #A68985",
"W. c #B38D85",
"Q. c #BB9081",
"!. c #BB948A",
"~. c #B58C94",
"^. c #AA9698",
"/. c #BFA39E",
"(. c #A299A6",
"). c #BE9CA4",
"_. c #AFB4BF",
"`. c #C19686",
"'. c #CD9583",
"]. c #C49489",
"[. c #C59C8E",
"{. c #D89784",
"}. c #D59E89",
"|. c #D1A28F",
" X c #DDA38D",
".X c #C8A298",
"XX c #D6A793",
"oX c #DBAA95",
"OX c #E4A48D",
"+X c #E2AE96",
"@X c #EAAA91",
"#X c #EAB49A",
"$X c #F3BB9E",
"%X c #CBADB1",
"&X c #CDBAC1",
"*X c #BAC9D4",
"=X c #D7CCD4",
"-X c #DBD5DC",
";X c #DED8E0",
/* pixels */
"F.F.F.F.F.F.F.A.h.J #           .     + > Y v.G.G.F.F.F.F.F.S.F.",
"F.F.F.F.F.S.S.z.i.3 % o o o o o o o o @ > J f.C.F.F.F.F.F.F.F.F.",
"F.F.F.F.G.A.z.p.l 9 6 6 8 8 6 6 8 8 8 8 7 h J s.C.G.F.F.S.F.F.F.",
"F.F.F.S.A.z.p.l 0 6 w r r r r r r r g q w 0 h J j.v.F.F.F.F.F.F.",
"F.F.F.A.l.i.l 7 w w r r g r r r r r r r r q 0 h J s.C.F.F.F.F.F.",
"F.F.F.Z.g.I * 5 q r r r r r r r g r g r r q 6 7 h Y c.G.F.F.F.F.",
"F.F.F.Z.g.J * 5 q r r r r r r r r r r r r q q 8 1 Y c.F.F.S.F.F.",
"F.F.F.Z.g.J * 5 g ^ / ^ g r r r q g g ^ / ~ w 6 1 U c.F.F.F.F.F.",
"F.F.F.C.g.J 9 8 / } 4.| ^ r r r r g ( } 3.} e 7 h U x.G.F.F.F.F.",
"F.F.F.Z.j.J % 8 _ 9.!.E.| ` ( ` ` } 8.E.W.7.x 7 > U c.G.F.F.F.F.",
"F.F.F.A.j.J % 8 ( E.oX#XXX[.[.[.[..XoXoX[.8.z 7 < U c.G.F.F.F.F.",
"F.D.A.x.s.L j x ( 3.W.|.XX+X$X$X#X+X|.!.n. .x f l R k.C.S.F.F.F.",
"F.A.l.s.T Q { [ / x v ' 3.Q.#X$XXXm.[ D v / ( [ ;.%.R s.v.F.F.F.",
"F.Z.g.E W ' n.9.` z a c D n.+X$X'.5.v 0 x / } 3.6.<.L U x.G.F.F.",
"F.V.d.R S ] n.E.| _ [ ] G 1.oX$X`.2.D D [ 4.3.4.6.1.L J x.G.F.F.",
"F.A.k.s.P ] 5.9.7.7.e.1.A #.'.OXb.-.F ' m.W.4.;.1.%.T p.v.F.F.F.",
"F.F.Z.l.a.T N O.q.M.m.1.n d w.t.>.H A #.N.'.>.N S R f.c.S.F.F.F.",
"F.F.F.Z.f.I ; i $.r.M.e.&.@.w.y.0.>.&.2.M.w.Z k 2 Y x.F.F.F.F.F.",
"F.F.F.Z.g.J & @ i +.r.B.].}.@X@X X{.'.M.0.N = # , Y v.G.F.F.F.F.",
"F.D.A.x.s.K j z v H 0.B.{.@X@X@X@XOX{.w.*.C c z l R k.V.D.F.F.F.",
"F.A.z.s.P { E.^.R.4.+.@.0.y.y.y.t.w.$.*.*.K.^.^.6.%.Y s.V.F.F.F.",
"Z.x.s.! Q 6.[..XR.3.B m @.e.y.B.r.0.X.V ' K.^./.N.2.Q R k.C.D.F.",
"j.s.! ;.b.M.e.=.D y i V ,.~.%X&X).L.*.d y c ' :.b.M.2.%.R s.v.G.",
"p.u.W -.'.{.0.C = $ p X.e.).=X;X&X~.*.s u = u H B.{.N.<.L U x.G.",
"i.R S :. X#XM.H t - d @.K.).-X;X&X).,.d s i k -.}.@XN.<.L I z.G.",
"d.p.T ;.m.N.2.F t = s ' K.(.*X*X_.R.&.B u - u G m.N.n.%.T p.v.F.",
"V.z.s.L b y 9 # O O 7 x H.U.T.T.Y.I.) a @ O @ # y k l ! d.c.S.F.",
"F.C.k.i.4 & # @ O @ 9 v ` J.J.P.J.H.( a $ O + + & 1 J p.v.F.F.F.",
"F.S.Z.x.k.p.I 4 & : ..@.Q v f q g D &.+.B : ; 3 u.g.l.c.S.F.F.F.",
"F.F.F.S.F.Z.h.p.M n ....N k > , h n ..o.m M J p.c.D.D.D.D.F.F.F.",
"F.F.F.F.F.S.Z.l.a.M ; = k K p.s.u.M ; ; 2 K d.c.A.F.D.F.F.D.D.F.",
"F.F.F.F.F.F.F.Z.d.J # X , U z.V.d.J # O , U x.F.F.F.F.F.F.F.F.F."
};
