/* XPM */
static char *result[] = {
/* columns rows colors chars-per-pixel */
"32 32 136 2 ",
"   c #61643A",
".  c #6D713E",
"X  c #3D3F45",
"o  c #3A3D4A",
"O  c #2C2F52",
"+  c #2D3052",
"@  c #323653",
"#  c #353956",
"$  c #3B3D56",
"%  c #313659",
"&  c #3A3E5C",
"*  c #373E66",
"=  c #3B3F63",
"-  c #3E4045",
";  c #3F434F",
":  c #3C415C",
">  c #3D4265",
",  c #3B436B",
"<  c #3E4670",
"1  c #3F4872",
"2  c #484B46",
"3  c #44464B",
"4  c #46484E",
"5  c #4A4C4D",
"6  c #545740",
"7  c #565941",
"8  c #585B44",
"9  c #555A4B",
"0  c #5B5E48",
"q  c #414652",
"w  c #454950",
"e  c #4B4C51",
"r  c #484A58",
"t  c #4F5258",
"y  c #515250",
"u  c #5B5D53",
"i  c #595B5E",
"p  c #5E614A",
"a  c #5F625B",
"s  c #616445",
"d  c #696D46",
"f  c #61644A",
"g  c #666949",
"h  c #6C6F48",
"j  c #6D7149",
"k  c #707440",
"l  c #737847",
"z  c #71754D",
"x  c #757A4B",
"c  c #787E4F",
"v  c #626656",
"b  c #62655A",
"n  c #747950",
"m  c #434566",
"M  c #454668",
"N  c #45496C",
"B  c #4B4D6B",
"V  c #535660",
"C  c #595B65",
"Z  c #555868",
"A  c #5A5D6A",
"S  c #414A74",
"D  c #484F77",
"F  c #454E78",
"G  c #47507A",
"H  c #4C547E",
"J  c #535575",
"K  c #5D5F70",
"L  c #51577E",
"P  c #5E6179",
"I  c #63636B",
"U  c #616473",
"Y  c #61637D",
"T  c #7F8444",
"R  c #7D834B",
"E  c #7D8250",
"W  c #808545",
"Q  c #858B47",
"!  c #81874D",
"~  c #83894C",
"^  c #898F48",
"/  c #8E954D",
"(  c #90974E",
")  c #979F4E",
"_  c #979F50",
"`  c #9FA74F",
"'  c #97A050",
"]  c #98A050",
"[  c #A0A952",
"{  c #ABB553",
"}  c #B2BC56",
"|  c #B7C158",
" . c #BCC759",
".. c #C1CD5B",
"X. c #C6D25C",
"o. c #C9D55D",
"O. c #4E5680",
"+. c #535B84",
"@. c #595E86",
"#. c #575F88",
"$. c #585F8A",
"%. c #5B628B",
"&. c #616580",
"*. c #676B85",
"=. c #6B6E8B",
"-. c #6D718C",
";. c #74758F",
":. c #606790",
">. c #646B95",
",. c #686F95",
"<. c #676E99",
"1. c #686F99",
"2. c #687096",
"3. c #6B729B",
"4. c #737799",
"5. c #767B9C",
"6. c #797D9D",
"7. c #767CA1",
"8. c #797FA3",
"9. c #7D819F",
"0. c #7B81A5",
"q. c #7F85A8",
"w. c #8186A5",
"e. c #8187A9",
"r. c #858BAD",
"t. c #8A8EAC",
"y. c #8A8FB0",
"u. c #8D92B2",
"i. c #9296B4",
"p. c #9598B3",
"a. c #979BB9",
"s. c #9A9EBB",
"d. c #9CA1BD",
"f. c #9EA3C0",
"g. c #A3A7C2",
"h. c #A4A8C3",
/* pixels */
"o.o.o.o.o.o.o. .[ ~ .                     . / { ..X.o.o.o.o.o.o.",
"o.o.o.o.o.....{ ( x g 0 p f f g f f f p 0 g W _ } ..o.o.o.o.o.o.",
"o.o.o.o.o...{ ( z u i C I I I I I I I I C i v x _ } ..o.o.X.o.o.",
"o.o.o.X...{ ( n b A Y =.-.;.;.;.;.;.;.-.*.P C v E _ } ..o.o.o.o.",
"o.o.o...{ / z a U =.0.t.i.p.p.p.p.p.p.i.t.6.*.I b x _ } ..o.o.o.",
"o.X...{ ( x a K -.w.p.f.g.h.h.h.h.h.h.g.d.u.6.*.A v E _ } ..o.o.",
"o...{ / z a U =.e.p.d.g.h.h.h.h.h.h.h.h.g.s.u.9.*.I b x _ } ..o.",
" .{ ( n a K -.w.i.d.g.g.g.g.g.g.h.h.g.g.h.g.d.i.6.*.I b ! _ } ..",
"[ ( z b U -.w.i.d.g.g.g.g.g.g.h.g.g.g.g.g.g.g.s.i.8.*.I b c ] { ",
"~ x u Z =.0.i.f.g.g.g.g.h.g.g.g.g.h.g.g.g.g.g.g.s.i.5.&.V f ~ _ ",
". f t J 4.u.d.g.g.g.g.g.g.g.g.g.g.g.g.g.g.g.g.g.g.a.r.=.B y x ~ ",
"  8 r J 4.u.s.g.g.g.g.g.g.g.h.g.g.h.g.g.g.g.g.g.g.a.r.,.M 5 d W ",
"  8 q D =.0.i.d.g.g.g.g.g.h.g.g.g.g.h.g.g.g.g.g.d.u.8.&.m 3 d W ",
"  7 o m @.3.e.i.s.g.g.g.g.g.h.g.g.g.g.g.g.g.g.a.u.0.2.L # 3 d T ",
"  7 o = D %.3.e.i.d.g.h.g.g.g.g.g.g.g.g.h.g.s.u.8.1.$.S @ - d W ",
"  7 o % , O.%.3.e.i.s.f.g.h.h.h.h.h.h.h.g.s.u.0.,.$.H , + X d W ",
"  6 o % , F O.%.3.q.i.f.g.g.h.g.h.g.h.g.s.u.0.,.+.H F , O - d T ",
"  6 o % , 1 F O.%.3.e.u.s.d.d.d.d.d.d.p.u.q.>.%.G F 1 , O - d T ",
"  7 o % , 1 1 G H %.3.0.r.y.y.y.y.y.u.r.8.>.#.H F F 1 , O - d T ",
"  6 o % < 1 1 F F O.:.3.7.0.0.8.8.0.0.7.>.%.G F S 1 1 , O - d T ",
"  6 - % , 1 1 1 S G +.:.1.3.7.3.3.3.3.<.%.+.F 1 1 1 1 > O - d T ",
"k s 3 # , < 1 1 S F O.%.>.1.<.<.<.3.<.>.#.O.F 1 1 1 < > @ 2 l Q ",
"/ R 9 ; & , < 1 1 F +.%.>.1.1.1.<.1.1.>.#.G F 1 1 1 > # 3 p / ` ",
"{ ' l 9 q : , < 1 F +.%.>.1.1.1.1.1.3.>.#.O.F < < , : 4 p R ` } ",
" .} ' x 9 ; > , < F +.%.<.<.1.1.<.<.1.>.%.H F , > # w p R ` |  .",
"o. .} ' x 9 ; : * F O.%.<.<.3.1.3.3.2.>.%.H 1 , : ; p R [  .o.o.",
"o.o.X.} ) R 9 ; : N O.%.<.<.1.1.1.3.2.<.#.G , : 4 p R ` | X.o.o.",
"o.o.o.X.} ' z 9 q : D L $.%.%.%.%.%.%.+.H N : w p R `  .X.o.o.o.",
"o.X.o.o. .| ' R 9 ; & = m M M M m M M m : $ 4 p E ` | X.X.o.o.o.",
"o.o.o.o.o. .} ' l 0 5 4 5 e 5 e e e e w 4 2 p R [  . .o.o.o.o.X.",
"o.o.o.X.o.o. .| ' ~ l d j j h h j j j h d x / [  .X.X.o.o.o.o.o.",
"o.X.o.o.o.o.o. .{ ) Q T T T T T T T T T T ^ ` |  .o.o.o.o.o.o.X."
};
